<svg width="89" height="60" viewBox="0 0 89 60" fill="none" xmlns="http://www.w3.org/2000/svg">
<g clip-path="url(#clip0_262_4385)">
<path d="M26.6793 48C21.662 48 17.5938 46.2222 14.4749 42.6667C11.4916 38.9744 10 34.188 10 28.3077C10 20.6496 12.2375 13.5385 16.7124 6.97435C21.1874 0.2735 26.7471 -4.71795 33.3917 -8L34.6122 -5.53847C31.7645 -3.35043 29.2558 -0.547012 27.0861 2.87179C24.9165 6.29059 23.357 10.5299 22.4078 15.5897L26.6793 16.6154C31.4255 17.7094 35.0868 19.7607 37.6633 22.7692C40.3754 25.641 41.7314 29.1282 41.7314 33.2308C41.7314 37.6068 40.2398 41.1624 37.2565 43.8974C34.4088 46.6325 30.8831 48 26.6793 48ZM63.9479 48C58.9306 48 54.8624 46.2222 51.7435 42.6667C48.7602 38.9744 47.2686 34.188 47.2686 28.3077C47.2686 20.6496 49.5061 13.5385 53.981 6.97435C58.4559 0.2735 64.0157 -4.71795 70.6603 -8L71.8808 -5.53847C69.0331 -3.35043 66.5244 -0.547012 64.3547 2.87179C62.1851 6.29059 60.6256 10.5299 59.6764 15.5897L63.9479 16.6154C68.6941 17.7094 72.3554 19.7607 74.9319 22.7692C77.6439 25.641 79 29.1282 79 33.2308C79 37.6068 77.5083 41.1624 74.525 43.8974C71.6774 46.6325 68.1516 48 63.9479 48Z" fill="#F5F5F5" fill-opacity="0.2"/>
</g>
<defs>
<clipPath id="clip0_262_4385">
<rect width="89" height="60" fill="white"/>
</clipPath>
</defs>
</svg>
