<svg width="20" height="20" viewBox="0 0 20 20" fill="none" xmlns="http://www.w3.org/2000/svg">
<path d="M10 3C9.70014 3 9.40321 3.06032 9.12617 3.17751C8.84913 3.2947 8.59741 3.46647 8.38537 3.68301C8.17334 3.89955 8.00514 4.15662 7.89039 4.43954C7.77563 4.72246 7.71657 5.0257 7.71657 5.33193C7.71657 5.63816 7.77563 5.9414 7.89039 6.22432C8.00514 6.50724 8.17334 6.76431 8.38537 6.98085C8.59741 7.19739 8.84913 7.36916 9.12617 7.48635C9.40321 7.60354 9.70014 7.66386 10 7.66386C10.6056 7.66386 11.1864 7.41818 11.6146 6.98085C12.0429 6.54353 12.2834 5.9504 12.2834 5.33193C12.2834 4.71346 12.0429 4.12033 11.6146 3.68301C11.1864 3.24568 10.6056 3 10 3ZM15.1429 4.1648C14.6882 4.1648 14.2522 4.34925 13.9307 4.67757C13.6092 5.00589 13.4286 5.45118 13.4286 5.9155C13.4286 6.37981 13.6092 6.82511 13.9307 7.15343C14.2522 7.48175 14.6882 7.66619 15.1429 7.66619C15.5975 7.66619 16.0336 7.48175 16.355 7.15343C16.6765 6.82511 16.8571 6.37981 16.8571 5.9155C16.8571 5.45118 16.6765 5.00589 16.355 4.67757C16.0336 4.34925 15.5975 4.1648 15.1429 4.1648ZM4.85714 4.1648C4.40249 4.1648 3.96645 4.34925 3.64496 4.67757C3.32347 5.00589 3.14286 5.45118 3.14286 5.9155C3.14286 6.37981 3.32347 6.82511 3.64496 7.15343C3.96645 7.48175 4.40249 7.66619 4.85714 7.66619C5.3118 7.66619 5.74784 7.48175 6.06933 7.15343C6.39082 6.82511 6.57143 6.37981 6.57143 5.9155C6.57143 5.45118 6.39082 5.00589 6.06933 4.67757C5.74784 4.34925 5.3118 4.1648 4.85714 4.1648ZM6.57143 9.99229C6.57354 9.68416 6.69488 9.38939 6.90898 9.17228C7.12308 8.95516 7.41256 8.83332 7.71429 8.83333C7.71429 8.83333 8.85714 9.17517 10 9.17517C11.1429 9.17517 12.2857 8.83333 12.2857 8.83333C12.5888 8.83333 12.8795 8.95629 13.0938 9.17517C13.3082 9.39405 13.4286 9.69092 13.4286 10.0005V13.5019C13.4289 13.8692 13.3726 14.2343 13.2617 14.5838C13.0087 15.3759 12.4874 16.05 11.7914 16.4849C11.0955 16.9199 10.2706 17.0872 9.46472 16.9569C8.65886 16.8266 7.92489 16.4071 7.39461 15.7739C6.86432 15.1406 6.57246 14.3351 6.57143 13.5019V9.99229ZM5.42857 10.0005C5.42857 9.57446 5.53943 9.17646 5.73486 8.83333H3.14286C2.83975 8.83333 2.54906 8.95629 2.33474 9.17517C2.12041 9.39405 2 9.69092 2 10.0005V12.9183C1.99984 13.396 2.11454 13.8664 2.33403 14.2883C2.55351 14.7102 2.87106 15.0706 3.25879 15.3378C3.64652 15.605 4.09258 15.771 4.55778 15.821C5.02298 15.8711 5.4931 15.8037 5.92686 15.6249C5.59862 14.967 5.42785 14.239 5.42857 13.5007V10.0005ZM14.5714 10.0005V13.5019C14.5714 14.2663 14.392 14.9876 14.0731 15.6249C14.5069 15.8037 14.977 15.8711 15.4422 15.821C15.9074 15.771 16.3535 15.605 16.7412 15.3378C17.1289 15.0706 17.4465 14.7102 17.666 14.2883C17.8855 13.8664 18.0002 13.396 18 12.9183V10.0005C18 9.69092 17.8796 9.39405 17.6653 9.17517C17.4509 8.95629 17.1602 8.83333 16.8571 8.83333H14.2651C14.4594 9.17646 14.5714 9.57446 14.5714 10.0005Z" fill="black"/>
</svg>
