<svg width="20" height="20" viewBox="0 0 20 20" fill="none" xmlns="http://www.w3.org/2000/svg">
<path d="M17.2775 13.2092V8.47565L10.3445 11.9857C10.0861 12.1194 9.8134 12.1862 9.52632 12.1862C9.23924 12.1862 8.96651 12.1194 8.70813 11.9857L1.43062 8.29513C1.27273 8.2149 1.16148 8.11461 1.09689 7.99427C1.0323 7.87392 1 7.74021 1 7.59312C1 7.44604 1.0323 7.31232 1.09689 7.19198C1.16148 7.07163 1.27273 6.97135 1.43062 6.89112L8.70813 3.20057C8.83732 3.13372 8.9701 3.08357 9.10646 3.05014C9.24282 3.01671 9.38278 3 9.52632 3C9.66986 3 9.80981 3.01671 9.94617 3.05014C10.0825 3.08357 10.2153 3.13372 10.3445 3.20057L18.5478 7.37249C18.6914 7.43935 18.8026 7.53629 18.8816 7.66332C18.9605 7.79035 19 7.92741 19 8.0745V13.2092C19 13.4365 18.9175 13.627 18.7524 13.7808C18.5873 13.9346 18.3828 14.0115 18.1388 14.0115C17.8947 14.0115 17.6902 13.9346 17.5251 13.7808C17.36 13.627 17.2775 13.4365 17.2775 13.2092ZM8.70813 16.7994L4.40191 14.6332C4.11483 14.4861 3.89234 14.2856 3.73445 14.0315C3.57655 13.7775 3.49761 13.5033 3.49761 13.2092V11.1605L8.70813 13.788C8.96651 13.9217 9.23924 13.9885 9.52632 13.9885C9.8134 13.9885 10.0861 13.9217 10.3445 13.788L15.555 11.1605V13.2092C15.555 13.5033 15.4761 13.7775 15.3182 14.0315C15.1603 14.2856 14.9378 14.4861 14.6507 14.6332L10.3445 16.7994C10.2153 16.8663 10.0825 16.9164 9.94617 16.9499C9.80981 16.9833 9.66986 17 9.52632 17C9.38278 17 9.24282 16.9833 9.10646 16.9499C8.9701 16.9164 8.83732 16.8663 8.70813 16.7994Z" fill="#111111"/>
</svg>
