<svg width="20" height="20" viewBox="0 0 20 20" fill="none" xmlns="http://www.w3.org/2000/svg">
<path d="M10 2C9.66265 2 9.32861 2.06893 9.01694 2.20287C8.70527 2.3368 8.42208 2.5331 8.18354 2.78058C7.945 3.02805 7.75578 3.32185 7.62669 3.64519C7.49759 3.96853 7.43114 4.31508 7.43114 4.66506C7.43114 5.01504 7.49759 5.3616 7.62669 5.68494C7.75578 6.00828 7.945 6.30207 8.18354 6.54955C8.42208 6.79702 8.70527 6.99333 9.01694 7.12726C9.32861 7.26119 9.66265 7.33013 10 7.33013C10.6813 7.33013 11.3347 7.04934 11.8165 6.54955C12.2982 6.04975 12.5689 5.37188 12.5689 4.66506C12.5689 3.95824 12.2982 3.28038 11.8165 2.78058C11.3347 2.28078 10.6813 2 10 2ZM15.7857 3.3312C15.2742 3.3312 14.7837 3.542 14.422 3.91722C14.0603 4.29244 13.8571 4.80135 13.8571 5.332C13.8571 5.86264 14.0603 6.37155 14.422 6.74677C14.7837 7.122 15.2742 7.33279 15.7857 7.33279C16.2972 7.33279 16.7877 7.122 17.1494 6.74677C17.5111 6.37155 17.7143 5.86264 17.7143 5.332C17.7143 4.80135 17.5111 4.29244 17.1494 3.91722C16.7877 3.542 16.2972 3.3312 15.7857 3.3312ZM4.21429 3.3312C3.7028 3.3312 3.21226 3.542 2.85058 3.91722C2.4889 4.29244 2.28571 4.80135 2.28571 5.332C2.28571 5.86264 2.4889 6.37155 2.85058 6.74677C3.21226 7.122 3.7028 7.33279 4.21429 7.33279C4.72578 7.33279 5.21631 7.122 5.57799 6.74677C5.93967 6.37155 6.14286 5.86264 6.14286 5.332C6.14286 4.80135 5.93967 4.29244 5.57799 3.91722C5.21631 3.542 4.72578 3.3312 4.21429 3.3312ZM6.14286 9.99119C6.14523 9.63905 6.28174 9.30217 6.5226 9.05403C6.76346 8.8059 7.08913 8.66665 7.42857 8.66666C7.42857 8.66666 8.71429 9.05734 10 9.05734C11.2857 9.05734 12.5714 8.66666 12.5714 8.66666C12.9124 8.66666 13.2394 8.80719 13.4806 9.05734C13.7217 9.30749 13.8571 9.64676 13.8571 10.0005V14.0021C13.8575 14.4219 13.7941 14.8392 13.6694 15.2386C13.3847 16.1439 12.7983 16.9143 12.0154 17.4113C11.2325 17.9084 10.3044 18.0997 9.39781 17.9507C8.49122 17.8018 7.6655 17.3224 7.06893 16.5987C6.47236 15.875 6.14402 14.9544 6.14286 14.0021V9.99119ZM4.85714 10.0005C4.85714 9.51366 4.98186 9.05882 5.20172 8.66666H2.28571C1.94472 8.66666 1.6177 8.80719 1.37658 9.05734C1.13546 9.30749 1 9.64676 1 10.0005V13.3352C0.999825 13.8811 1.12886 14.4188 1.37578 14.9009C1.6227 15.3831 1.97994 15.7949 2.41614 16.1003C2.85234 16.4058 3.35415 16.5954 3.8775 16.6526C4.40085 16.7098 4.92974 16.6328 5.41771 16.4284C5.04845 15.6766 4.85633 14.8446 4.85714 14.0008V10.0005ZM15.1429 10.0005V14.0021C15.1429 14.8758 14.941 15.7001 14.5823 16.4284C15.0703 16.6328 15.5991 16.7098 16.1225 16.6526C16.6459 16.5954 17.1477 16.4058 17.5839 16.1003C18.0201 15.7949 18.3773 15.3831 18.6242 14.9009C18.8711 14.4188 19.0002 13.8811 19 13.3352V10.0005C19 9.64676 18.8645 9.30749 18.6234 9.05734C18.3823 8.80719 18.0553 8.66666 17.7143 8.66666H14.7983C15.0169 9.05882 15.1429 9.51366 15.1429 10.0005Z" fill="black"/>
</svg>
