<svg width="20" height="20" viewBox="0 0 20 20" fill="none" xmlns="http://www.w3.org/2000/svg">
<path d="M10 1.76025C9.00544 1.76025 8.05161 2.15534 7.34835 2.8586C6.64509 3.56186 6.25 4.51569 6.25 5.51025C6.25 6.50482 6.64509 7.45864 7.34835 8.1619C8.05161 8.86517 9.00544 9.26025 10 9.26025C10.9946 9.26025 11.9484 8.86517 12.6517 8.1619C13.3549 7.45864 13.75 6.50482 13.75 5.51025C13.75 4.51569 13.3549 3.56186 12.6517 2.8586C11.9484 2.15534 10.9946 1.76025 10 1.76025ZM6 11.2603C5.00544 11.2603 4.05161 11.6553 3.34835 12.3586C2.64509 13.0619 2.25 14.0157 2.25 15.0103V16.1983C2.25 16.9523 2.796 17.5943 3.54 17.7153C7.818 18.4143 12.182 18.4143 16.46 17.7153C16.8198 17.6561 17.147 17.4711 17.3832 17.1933C17.6194 16.9155 17.7494 16.5629 17.75 16.1983V15.0103C17.75 14.0157 17.3549 13.0619 16.6517 12.3586C15.9484 11.6553 14.9946 11.2603 14 11.2603H13.66C13.4733 11.2609 13.292 11.2896 13.116 11.3463L12.25 11.6293C10.788 12.1066 9.21203 12.1066 7.75 11.6293L6.884 11.3463C6.70847 11.29 6.52534 11.2609 6.341 11.2603H6Z" fill="#111111"/>
</svg>
