<svg width="20" height="20" viewBox="0 0 20 20" fill="none" xmlns="http://www.w3.org/2000/svg">
<mask id="mask0_348_2772" style="mask-type:alpha" maskUnits="userSpaceOnUse" x="0" y="0" width="20" height="20">
<rect width="20" height="20" fill="#D9D9D9"/>
</mask>
<g mask="url(#mask0_348_2772)">
<path d="M3.4 17C3.17909 17 3 16.8209 3 16.6V6.4C3 6.17909 3.17909 6 3.4 6H5.6C5.82091 6 6 5.82091 6 5.6V3.4C6 3.17909 6.17909 3 6.4 3H13.1C13.3209 3 13.5 3.17909 13.5 3.4V8.6C13.5 8.82091 13.6791 9 13.9 9H16.6C16.8209 9 17 9.17909 17 9.4V16.6C17 16.8209 16.8209 17 16.6 17H11.4C11.1791 17 11 16.8209 11 16.6V14.4C11 14.1791 10.8209 14 10.6 14H9.4C9.17909 14 9 14.1791 9 14.4V16.6C9 16.8209 8.82091 17 8.6 17H3.4ZM4.5 15.1C4.5 15.3209 4.67909 15.5 4.9 15.5H5.6C5.82091 15.5 6 15.3209 6 15.1V14.4C6 14.1791 5.82091 14 5.6 14H4.9C4.67909 14 4.5 14.1791 4.5 14.4V15.1ZM4.5 11.85C4.5 12.0709 4.67909 12.25 4.9 12.25H5.6C5.82091 12.25 6 12.0709 6 11.85V11.15C6 10.9291 5.82091 10.75 5.6 10.75H4.9C4.67909 10.75 4.5 10.9291 4.5 11.15V11.85ZM4.5 8.6C4.5 8.82091 4.67909 9 4.9 9H5.6C5.82091 9 6 8.82091 6 8.6V7.9C6 7.67909 5.82091 7.5 5.6 7.5H4.9C4.67909 7.5 4.5 7.67909 4.5 7.9V8.6ZM7.5 11.85C7.5 12.0709 7.67909 12.25 7.9 12.25H8.6C8.82091 12.25 9 12.0709 9 11.85V11.15C9 10.9291 8.82091 10.75 8.6 10.75H7.9C7.67909 10.75 7.5 10.9291 7.5 11.15V11.85ZM7.5 8.6C7.5 8.82091 7.67909 9 7.9 9H8.6C8.82091 9 9 8.82091 9 8.6V7.9C9 7.67909 8.82091 7.5 8.6 7.5H7.9C7.67909 7.5 7.5 7.67909 7.5 7.9V8.6ZM7.5 5.6C7.5 5.82091 7.67909 6 7.9 6H8.6C8.82091 6 9 5.82091 9 5.6V4.9C9 4.67909 8.82091 4.5 8.6 4.5H7.9C7.67909 4.5 7.5 4.67909 7.5 4.9V5.6ZM10.5 11.85C10.5 12.0709 10.6791 12.25 10.9 12.25H11.6C11.8209 12.25 12 12.0709 12 11.85V11.15C12 10.9291 11.8209 10.75 11.6 10.75H10.9C10.6791 10.75 10.5 10.9291 10.5 11.15V11.85ZM10.5 8.6C10.5 8.82091 10.6791 9 10.9 9H11.6C11.8209 9 12 8.82091 12 8.6V7.9C12 7.67909 11.8209 7.5 11.6 7.5H10.9C10.6791 7.5 10.5 7.67909 10.5 7.9V8.6ZM10.5 5.6C10.5 5.82091 10.6791 6 10.9 6H11.6C11.8209 6 12 5.82091 12 5.6V4.9C12 4.67909 11.8209 4.5 11.6 4.5H10.9C10.6791 4.5 10.5 4.67909 10.5 4.9V5.6ZM14 15.1C14 15.3209 14.1791 15.5 14.4 15.5H15.1C15.3209 15.5 15.5 15.3209 15.5 15.1V14.4C15.5 14.1791 15.3209 14 15.1 14H14.4C14.1791 14 14 14.1791 14 14.4V15.1ZM14 11.85C14 12.0709 14.1791 12.25 14.4 12.25H15.1C15.3209 12.25 15.5 12.0709 15.5 11.85V11.15C15.5 10.9291 15.3209 10.75 15.1 10.75H14.4C14.1791 10.75 14 10.9291 14 11.15V11.85Z" fill="#1C1B1F"/>
</g>
</svg>
